<mxfile host="app.diagrams.net" agent="Mozilla/5.0 (Macintosh; Intel Mac OS X 10_15_7) AppleWebKit/537.36 (KHTML, like Gecko) Chrome/135.0.0.0 Safari/537.36" version="26.2.9">
  <diagram name="Page-1" id="y7r9vnVUinvZSlPr59UU">
    <mxGraphModel dx="5002" dy="1852" grid="1" gridSize="10" guides="1" tooltips="1" connect="1" arrows="1" fold="1" page="1" pageScale="1" pageWidth="827" pageHeight="1169" background="#FFFFFF" math="0" shadow="0">
      <root>
        <mxCell id="0" />
        <mxCell id="1" parent="0" />
        <mxCell id="VUfXOKQmoESvI0yCJa1Z-14" value="ARC" style="rounded=0;whiteSpace=wrap;html=1;fontSize=17;align=center;labelPosition=center;verticalLabelPosition=top;verticalAlign=bottom;fillColor=default;" parent="1" vertex="1">
          <mxGeometry x="-1030" y="210" width="780" height="480" as="geometry" />
        </mxCell>
        <mxCell id="VUfXOKQmoESvI0yCJa1Z-6" value="metamorph" style="rounded=0;whiteSpace=wrap;html=1;fontSize=17;align=center;labelPosition=center;verticalLabelPosition=top;verticalAlign=bottom;" parent="1" vertex="1">
          <mxGeometry x="-740" y="390" width="200" height="260" as="geometry" />
        </mxCell>
        <mxCell id="VUfXOKQmoESvI0yCJa1Z-1" value="validation" style="rounded=0;whiteSpace=wrap;html=1;fontSize=17;" parent="1" vertex="1">
          <mxGeometry x="-820" y="260" width="120" height="60" as="geometry" />
        </mxCell>
        <mxCell id="VUfXOKQmoESvI0yCJa1Z-30" style="edgeStyle=orthogonalEdgeStyle;rounded=0;orthogonalLoop=1;jettySize=auto;html=1;exitX=1;exitY=0.5;exitDx=0;exitDy=0;" parent="1" source="VUfXOKQmoESvI0yCJa1Z-3" target="VUfXOKQmoESvI0yCJa1Z-1" edge="1">
          <mxGeometry relative="1" as="geometry" />
        </mxCell>
        <mxCell id="VUfXOKQmoESvI0yCJa1Z-35" style="edgeStyle=orthogonalEdgeStyle;rounded=0;orthogonalLoop=1;jettySize=auto;html=1;exitX=0.75;exitY=1;exitDx=0;exitDy=0;entryX=0.25;entryY=0;entryDx=0;entryDy=0;curved=1;" parent="1" source="VUfXOKQmoESvI0yCJa1Z-3" target="VUfXOKQmoESvI0yCJa1Z-4" edge="1">
          <mxGeometry relative="1" as="geometry" />
        </mxCell>
        <mxCell id="VUfXOKQmoESvI0yCJa1Z-3" value="API" style="rounded=0;whiteSpace=wrap;html=1;fontSize=17;fillColor=#FFFF99;" parent="1" vertex="1">
          <mxGeometry x="-980" y="260" width="120" height="60" as="geometry" />
        </mxCell>
        <mxCell id="VUfXOKQmoESvI0yCJa1Z-4" value="service" style="rounded=0;whiteSpace=wrap;html=1;fontSize=17;fillColor=#FFFF99;gradientColor=none;" parent="1" vertex="1">
          <mxGeometry x="-700" y="425" width="120" height="60" as="geometry" />
        </mxCell>
        <mxCell id="VUfXOKQmoESvI0yCJa1Z-5" value="store" style="shape=cylinder3;whiteSpace=wrap;html=1;boundedLbl=1;backgroundOutline=1;size=15;fontSize=17;fillColor=#B3B3B3;" parent="1" vertex="1">
          <mxGeometry x="-670" y="540" width="60" height="80" as="geometry" />
        </mxCell>
        <mxCell id="VUfXOKQmoESvI0yCJa1Z-7" value="blocktx" style="rounded=0;whiteSpace=wrap;html=1;fontSize=17;align=center;labelPosition=center;verticalLabelPosition=top;verticalAlign=bottom;" parent="1" vertex="1">
          <mxGeometry x="-980" y="390" width="200" height="260" as="geometry" />
        </mxCell>
        <mxCell id="VUfXOKQmoESvI0yCJa1Z-8" value="service" style="rounded=0;whiteSpace=wrap;html=1;fontSize=17;fillColor=#FFFF99;" parent="1" vertex="1">
          <mxGeometry x="-940" y="425" width="120" height="60" as="geometry" />
        </mxCell>
        <mxCell id="VUfXOKQmoESvI0yCJa1Z-9" value="store" style="shape=cylinder3;whiteSpace=wrap;html=1;boundedLbl=1;backgroundOutline=1;size=15;fontSize=17;fillColor=#B3B3B3;" parent="1" vertex="1">
          <mxGeometry x="-910" y="540" width="60" height="80" as="geometry" />
        </mxCell>
        <mxCell id="VUfXOKQmoESvI0yCJa1Z-10" value="callbacker" style="rounded=0;whiteSpace=wrap;html=1;fontSize=17;labelPosition=center;verticalLabelPosition=top;align=center;verticalAlign=bottom;" parent="1" vertex="1">
          <mxGeometry x="-520" y="390" width="200" height="260" as="geometry" />
        </mxCell>
        <mxCell id="VUfXOKQmoESvI0yCJa1Z-11" value="service" style="rounded=0;whiteSpace=wrap;html=1;fontSize=17;fillColor=#FFFF99;" parent="1" vertex="1">
          <mxGeometry x="-480" y="425" width="120" height="60" as="geometry" />
        </mxCell>
        <mxCell id="VUfXOKQmoESvI0yCJa1Z-12" value="store" style="shape=cylinder3;whiteSpace=wrap;html=1;boundedLbl=1;backgroundOutline=1;size=15;fontSize=17;fillColor=#B3B3B3;" parent="1" vertex="1">
          <mxGeometry x="-450" y="540" width="60" height="80" as="geometry" />
        </mxCell>
        <mxCell id="VUfXOKQmoESvI0yCJa1Z-29" style="edgeStyle=orthogonalEdgeStyle;rounded=0;orthogonalLoop=1;jettySize=auto;html=1;exitX=0.5;exitY=1;exitDx=0;exitDy=0;entryX=0.5;entryY=0;entryDx=0;entryDy=0;" parent="1" source="VUfXOKQmoESvI0yCJa1Z-15" target="VUfXOKQmoESvI0yCJa1Z-3" edge="1">
          <mxGeometry relative="1" as="geometry" />
        </mxCell>
        <mxCell id="VUfXOKQmoESvI0yCJa1Z-15" value="user&lt;br style=&quot;font-size: 17px;&quot;&gt;app" style="rounded=0;whiteSpace=wrap;html=1;fontSize=17;" parent="1" vertex="1">
          <mxGeometry x="-980" y="90" width="120" height="60" as="geometry" />
        </mxCell>
        <mxCell id="VUfXOKQmoESvI0yCJa1Z-16" value="user&lt;br style=&quot;font-size: 17px;&quot;&gt;backend" style="rounded=0;whiteSpace=wrap;html=1;fontSize=17;" parent="1" vertex="1">
          <mxGeometry x="-490" y="90" width="120" height="60" as="geometry" />
        </mxCell>
        <mxCell id="VUfXOKQmoESvI0yCJa1Z-18" value="p2p&lt;div style=&quot;font-size: 17px;&quot;&gt;network&lt;/div&gt;" style="ellipse;shape=cloud;whiteSpace=wrap;html=1;fontSize=17;fillColor=#CCCCCC;" parent="1" vertex="1">
          <mxGeometry x="-745" y="930" width="210" height="140" as="geometry" />
        </mxCell>
        <mxCell id="VUfXOKQmoESvI0yCJa1Z-19" value="bitcoin nodes" style="rounded=1;whiteSpace=wrap;html=1;fontSize=17;labelPosition=center;verticalLabelPosition=bottom;align=center;verticalAlign=top;" parent="1" vertex="1">
          <mxGeometry x="-915" y="730" width="550" height="150" as="geometry" />
        </mxCell>
        <mxCell id="VUfXOKQmoESvI0yCJa1Z-20" value="node n ..." style="rounded=0;whiteSpace=wrap;html=1;fontSize=17;fillColor=#99FFFF;" parent="1" vertex="1">
          <mxGeometry x="-870" y="775" width="120" height="60" as="geometry" />
        </mxCell>
        <mxCell id="VUfXOKQmoESvI0yCJa1Z-21" value="node 2" style="rounded=0;whiteSpace=wrap;html=1;fontSize=17;fillColor=#99FFFF;" parent="1" vertex="1">
          <mxGeometry x="-700" y="775" width="120" height="60" as="geometry" />
        </mxCell>
        <mxCell id="VUfXOKQmoESvI0yCJa1Z-42" style="edgeStyle=orthogonalEdgeStyle;rounded=0;orthogonalLoop=1;jettySize=auto;html=1;exitX=0.75;exitY=0;exitDx=0;exitDy=0;entryX=1;entryY=0.75;entryDx=0;entryDy=0;elbow=vertical;curved=1;dashed=1;dashPattern=1 1;" parent="1" source="VUfXOKQmoESvI0yCJa1Z-22" target="VUfXOKQmoESvI0yCJa1Z-4" edge="1">
          <mxGeometry relative="1" as="geometry" />
        </mxCell>
        <mxCell id="VUfXOKQmoESvI0yCJa1Z-43" value="zmq" style="edgeLabel;html=1;align=center;verticalAlign=middle;resizable=0;points=[];fontSize=15;" parent="VUfXOKQmoESvI0yCJa1Z-42" vertex="1" connectable="0">
          <mxGeometry x="-0.7049" y="4" relative="1" as="geometry">
            <mxPoint as="offset" />
          </mxGeometry>
        </mxCell>
        <mxCell id="VUfXOKQmoESvI0yCJa1Z-22" value="node 1" style="rounded=0;whiteSpace=wrap;html=1;fontSize=17;fillColor=#99FFFF;" parent="1" vertex="1">
          <mxGeometry x="-530" y="775" width="120" height="60" as="geometry" />
        </mxCell>
        <mxCell id="VUfXOKQmoESvI0yCJa1Z-25" value="" style="endArrow=classic;startArrow=classic;html=1;rounded=0;exitX=1;exitY=0.5;exitDx=0;exitDy=0;" parent="1" source="VUfXOKQmoESvI0yCJa1Z-8" target="VUfXOKQmoESvI0yCJa1Z-4" edge="1">
          <mxGeometry width="50" height="50" relative="1" as="geometry">
            <mxPoint x="-430" y="750" as="sourcePoint" />
            <mxPoint x="-380" y="700" as="targetPoint" />
          </mxGeometry>
        </mxCell>
        <mxCell id="VUfXOKQmoESvI0yCJa1Z-28" style="edgeStyle=orthogonalEdgeStyle;rounded=0;orthogonalLoop=1;jettySize=auto;html=1;exitX=1;exitY=0.5;exitDx=0;exitDy=0;entryX=1;entryY=0.75;entryDx=0;entryDy=0;curved=1;" parent="1" source="VUfXOKQmoESvI0yCJa1Z-11" target="VUfXOKQmoESvI0yCJa1Z-16" edge="1">
          <mxGeometry relative="1" as="geometry" />
        </mxCell>
        <mxCell id="VUfXOKQmoESvI0yCJa1Z-39" value="callback" style="edgeLabel;html=1;align=center;verticalAlign=middle;resizable=0;points=[];fontSize=15;" parent="VUfXOKQmoESvI0yCJa1Z-28" vertex="1" connectable="0">
          <mxGeometry x="0.0358" relative="1" as="geometry">
            <mxPoint as="offset" />
          </mxGeometry>
        </mxCell>
        <mxCell id="VUfXOKQmoESvI0yCJa1Z-36" style="edgeStyle=orthogonalEdgeStyle;rounded=0;orthogonalLoop=1;jettySize=auto;html=1;exitX=0.5;exitY=1;exitDx=0;exitDy=0;entryX=0.5;entryY=0;entryDx=0;entryDy=0;entryPerimeter=0;" parent="1" source="VUfXOKQmoESvI0yCJa1Z-8" target="VUfXOKQmoESvI0yCJa1Z-9" edge="1">
          <mxGeometry relative="1" as="geometry" />
        </mxCell>
        <mxCell id="VUfXOKQmoESvI0yCJa1Z-37" style="edgeStyle=orthogonalEdgeStyle;rounded=0;orthogonalLoop=1;jettySize=auto;html=1;exitX=0.5;exitY=1;exitDx=0;exitDy=0;entryX=0.5;entryY=0;entryDx=0;entryDy=0;entryPerimeter=0;" parent="1" source="VUfXOKQmoESvI0yCJa1Z-4" target="VUfXOKQmoESvI0yCJa1Z-5" edge="1">
          <mxGeometry relative="1" as="geometry" />
        </mxCell>
        <mxCell id="VUfXOKQmoESvI0yCJa1Z-38" value="" style="endArrow=classic;html=1;rounded=0;exitX=0.5;exitY=1;exitDx=0;exitDy=0;" parent="1" source="VUfXOKQmoESvI0yCJa1Z-11" target="VUfXOKQmoESvI0yCJa1Z-12" edge="1">
          <mxGeometry width="50" height="50" relative="1" as="geometry">
            <mxPoint x="-430" y="750" as="sourcePoint" />
            <mxPoint x="-380" y="700" as="targetPoint" />
          </mxGeometry>
        </mxCell>
        <mxCell id="VUfXOKQmoESvI0yCJa1Z-44" value="" style="endArrow=classic;startArrow=classic;html=1;rounded=0;exitX=0.5;exitY=0;exitDx=0;exitDy=0;entryX=0.25;entryY=1;entryDx=0;entryDy=0;edgeStyle=orthogonalEdgeStyle;curved=1;dashed=1;" parent="1" source="VUfXOKQmoESvI0yCJa1Z-20" target="VUfXOKQmoESvI0yCJa1Z-4" edge="1">
          <mxGeometry width="50" height="50" relative="1" as="geometry">
            <mxPoint x="60" y="750" as="sourcePoint" />
            <mxPoint x="110" y="700" as="targetPoint" />
          </mxGeometry>
        </mxCell>
        <mxCell id="VUfXOKQmoESvI0yCJa1Z-48" value="" style="endArrow=classic;startArrow=classic;html=1;rounded=0;entryX=0.5;entryY=0;entryDx=0;entryDy=0;edgeStyle=orthogonalEdgeStyle;curved=1;dashed=1;exitX=0.25;exitY=1;exitDx=0;exitDy=0;" parent="1" source="VUfXOKQmoESvI0yCJa1Z-4" target="VUfXOKQmoESvI0yCJa1Z-21" edge="1">
          <mxGeometry width="50" height="50" relative="1" as="geometry">
            <mxPoint x="-670" y="490" as="sourcePoint" />
            <mxPoint x="110" y="700" as="targetPoint" />
          </mxGeometry>
        </mxCell>
        <mxCell id="VUfXOKQmoESvI0yCJa1Z-49" value="" style="endArrow=classic;startArrow=classic;html=1;rounded=0;dashed=1;edgeStyle=orthogonalEdgeStyle;curved=1;exitX=0.25;exitY=1;exitDx=0;exitDy=0;entryX=0.5;entryY=0;entryDx=0;entryDy=0;" parent="1" source="VUfXOKQmoESvI0yCJa1Z-4" target="VUfXOKQmoESvI0yCJa1Z-22" edge="1">
          <mxGeometry width="50" height="50" relative="1" as="geometry">
            <mxPoint x="-670" y="510" as="sourcePoint" />
            <mxPoint x="-470" y="770" as="targetPoint" />
          </mxGeometry>
        </mxCell>
        <mxCell id="VUfXOKQmoESvI0yCJa1Z-50" value="" style="endArrow=classic;startArrow=classic;html=1;rounded=0;entryX=0.25;entryY=0;entryDx=0;entryDy=0;edgeStyle=orthogonalEdgeStyle;curved=1;dashed=1;exitX=0.75;exitY=1;exitDx=0;exitDy=0;" parent="1" source="VUfXOKQmoESvI0yCJa1Z-8" target="VUfXOKQmoESvI0yCJa1Z-21" edge="1">
          <mxGeometry width="50" height="50" relative="1" as="geometry">
            <mxPoint x="-660" y="500" as="sourcePoint" />
            <mxPoint x="-630" y="785" as="targetPoint" />
          </mxGeometry>
        </mxCell>
        <mxCell id="VUfXOKQmoESvI0yCJa1Z-51" value="" style="endArrow=classic;startArrow=classic;html=1;rounded=0;exitX=0.25;exitY=0;exitDx=0;exitDy=0;edgeStyle=orthogonalEdgeStyle;curved=1;dashed=1;entryX=0.75;entryY=1;entryDx=0;entryDy=0;" parent="1" source="VUfXOKQmoESvI0yCJa1Z-20" target="VUfXOKQmoESvI0yCJa1Z-8" edge="1">
          <mxGeometry width="50" height="50" relative="1" as="geometry">
            <mxPoint x="-800" y="785" as="sourcePoint" />
            <mxPoint x="-850" y="490" as="targetPoint" />
          </mxGeometry>
        </mxCell>
        <mxCell id="VUfXOKQmoESvI0yCJa1Z-52" value="p2p" style="edgeLabel;html=1;align=center;verticalAlign=middle;resizable=0;points=[];fontSize=15;" parent="VUfXOKQmoESvI0yCJa1Z-51" vertex="1" connectable="0">
          <mxGeometry x="-0.7178" y="-6" relative="1" as="geometry">
            <mxPoint as="offset" />
          </mxGeometry>
        </mxCell>
        <mxCell id="VUfXOKQmoESvI0yCJa1Z-53" value="" style="endArrow=classic;startArrow=classic;html=1;rounded=0;dashed=1;edgeStyle=orthogonalEdgeStyle;curved=1;exitX=0.75;exitY=1;exitDx=0;exitDy=0;entryX=0.25;entryY=0;entryDx=0;entryDy=0;" parent="1" source="VUfXOKQmoESvI0yCJa1Z-8" target="VUfXOKQmoESvI0yCJa1Z-22" edge="1">
          <mxGeometry width="50" height="50" relative="1" as="geometry">
            <mxPoint x="-660" y="495" as="sourcePoint" />
            <mxPoint x="-460" y="785" as="targetPoint" />
          </mxGeometry>
        </mxCell>
        <mxCell id="VUfXOKQmoESvI0yCJa1Z-54" style="edgeStyle=orthogonalEdgeStyle;rounded=0;orthogonalLoop=1;jettySize=auto;html=1;exitX=0.5;exitY=1;exitDx=0;exitDy=0;entryX=0.07;entryY=0.4;entryDx=0;entryDy=0;entryPerimeter=0;curved=1;" parent="1" source="VUfXOKQmoESvI0yCJa1Z-20" target="VUfXOKQmoESvI0yCJa1Z-18" edge="1">
          <mxGeometry relative="1" as="geometry" />
        </mxCell>
        <mxCell id="VUfXOKQmoESvI0yCJa1Z-55" style="edgeStyle=orthogonalEdgeStyle;rounded=0;orthogonalLoop=1;jettySize=auto;html=1;exitX=0.5;exitY=1;exitDx=0;exitDy=0;entryX=0.81;entryY=0.21;entryDx=0;entryDy=0;entryPerimeter=0;curved=1;" parent="1" source="VUfXOKQmoESvI0yCJa1Z-21" target="VUfXOKQmoESvI0yCJa1Z-18" edge="1">
          <mxGeometry relative="1" as="geometry" />
        </mxCell>
        <mxCell id="VUfXOKQmoESvI0yCJa1Z-56" style="edgeStyle=orthogonalEdgeStyle;rounded=0;orthogonalLoop=1;jettySize=auto;html=1;exitX=0.5;exitY=1;exitDx=0;exitDy=0;entryX=0.88;entryY=0.25;entryDx=0;entryDy=0;entryPerimeter=0;curved=1;" parent="1" source="VUfXOKQmoESvI0yCJa1Z-22" target="VUfXOKQmoESvI0yCJa1Z-18" edge="1">
          <mxGeometry relative="1" as="geometry" />
        </mxCell>
        <mxCell id="VUfXOKQmoESvI0yCJa1Z-26" style="edgeStyle=orthogonalEdgeStyle;rounded=0;orthogonalLoop=1;jettySize=auto;html=1;exitX=1;exitY=0.5;exitDx=0;exitDy=0;entryX=0;entryY=0.5;entryDx=0;entryDy=0;" parent="1" source="VUfXOKQmoESvI0yCJa1Z-4" target="VUfXOKQmoESvI0yCJa1Z-11" edge="1">
          <mxGeometry relative="1" as="geometry" />
        </mxCell>
      </root>
    </mxGraphModel>
  </diagram>
</mxfile>
